HIERARCHY
ROOT hip
{
	OFFSET 0.000000 0.000000 0.000000
	CHANNELS 6 Xposition Yposition Zposition Xrotation Zrotation Yrotation 
	JOINT abdomen
	{
		OFFSET 0.000000 3.422050 0.000000
		CHANNELS 3 Xrotation Zrotation Yrotation 
		JOINT chest
		{
			OFFSET 0.000000 8.486693 -0.684411
			CHANNELS 3 Xrotation Zrotation Yrotation 
			JOINT neck
			{
				OFFSET 0.000000 10.266162 -0.273764
				CHANNELS 3 Xrotation Zrotation Yrotation 
				JOINT head
				{
					OFFSET 0.000000 3.148285 0.000000
					CHANNELS 3 Xrotation Zrotation Yrotation 
					End Site
					{
						OFFSET 0.000000 3.148289 0.000000
					}
				}
			}
			JOINT lCollar
			{
				OFFSET 3.422053 6.707223 -0.821293
				CHANNELS 3 Yrotation Zrotation Xrotation 
				JOINT lShldr
				{
					OFFSET 3.285171 0.000000 0.000000
					CHANNELS 3 Zrotation Yrotation Xrotation 
					JOINT lForeArm
					{
						OFFSET 10.129278 0.000000 0.000000
						CHANNELS 3 Yrotation Zrotation Xrotation 
						JOINT lHand
						{
							OFFSET 8.486692 0.000000 0.000000
							CHANNELS 3 Zrotation Yrotation Xrotation 
							End Site
							{
								OFFSET 4.106464 0.000000 0.000000
							}
						}
					}
				}
			}
			JOINT rCollar
			{
				OFFSET -3.558935 6.707223 -0.821293
				CHANNELS 3 Yrotation Zrotation Xrotation 
				JOINT rShldr
				{
					OFFSET -3.148289 0.000000 0.000000
					CHANNELS 3 Zrotation Yrotation Xrotation 
					JOINT rForeArm
					{
						OFFSET -10.266159 0.000000 0.000000
						CHANNELS 3 Yrotation Zrotation Xrotation 
						JOINT rHand
						{
							OFFSET -8.349810 0.000000 0.000000
							CHANNELS 3 Zrotation Yrotation Xrotation 
							End Site
							{
								OFFSET -4.106464 0.000000 0.000000
							}
						}
					}
				}
			}
		}
	}
	JOINT lThigh
	{
		OFFSET 5.338403 -1.642589 1.368821
		CHANNELS 3 Xrotation Zrotation Yrotation 
		JOINT lShin
		{
			OFFSET -2.053232 -20.121670 0.000000
			CHANNELS 3 Xrotation Zrotation Yrotation 
			JOINT lFoot
			{
				OFFSET 0.000000 -19.300380 -1.231939
				CHANNELS 3 Xrotation Yrotation Zrotation 
				End Site
				{
					OFFSET 0.000000 -2.463878 4.653993
				}
			}
		}
	}
	JOINT rThigh
	{
		OFFSET -5.338403 -1.642589 1.368821
		CHANNELS 3 Xrotation Zrotation Yrotation 
		JOINT rShin
		{
			OFFSET 2.053232 -20.121670 0.000000
			CHANNELS 3 Xrotation Zrotation Yrotation 
			JOINT rFoot
			{
				OFFSET 0.000000 -19.300380 -1.231939
				CHANNELS 3 Xrotation Yrotation Zrotation 
				End Site
				{
					OFFSET 0.000000 -2.463878 4.653993
				}
			}
		}
	}
}
MOTION
Frames: 11
Frame Time: 0.033325
19.995884 18.468296 11.209352 90.000671 0.013666 -132.006592 12.060122 20.869738 8.209968 10.883209 13.852081 15.751415 -35.802856 0.000000 0.000000 -25.426497 0.000000 0.000000 38.170231 8.081654 -4.854590 -15.516949 -27.017391 36.422359 -76.801445 43.974426 30.402245 -9.688253 1.265227 8.805002 21.882786 28.432198 -3.736007 58.747372 -16.956020 -55.899895 1.237373 -0.284450 -15.302978 30.567726 -3.750750 -2.975918 -124.329483 34.896282 -15.174486 68.812057 13.705503 -0.774125 16.231859 4.153687 -21.575861 -140.213043 22.348585 -2.254738 79.807800 41.910477 -2.418868 16.570047 9.992969 1.718054 
19.995884 18.468296 11.331904 90.000671 0.013666 -132.006592 12.060073 21.119663 8.209981 11.127045 14.401394 15.730350 -35.361568 0.000000 0.000000 -25.111179 0.000000 0.000000 37.715794 7.267595 -3.857955 -15.516949 -27.017391 36.422359 -76.193039 43.953579 29.976984 -9.144181 1.310628 9.040132 21.793005 27.918337 -3.509175 58.496117 -16.909534 -55.797779 1.237373 -0.284450 -15.302978 30.406473 -3.665013 -2.950708 -124.132683 35.180099 -14.806766 68.812057 13.705503 -0.774125 15.991239 3.964297 -21.322834 -140.421768 22.830667 -1.828179 79.807800 41.910477 -2.418868 16.229294 9.602711 2.334376 
19.995884 18.468296 11.454457 90.000671 0.013666 -132.006592 12.060025 21.369608 8.209996 11.371393 14.951035 15.711643 -34.919804 0.000000 0.000000 -24.795696 0.000000 0.000000 37.275528 6.444085 -2.867444 -15.516949 -27.017391 36.422359 -75.584961 43.929482 29.552122 -8.599690 1.353813 9.275789 21.705898 27.403975 -3.284229 58.244980 -16.862617 -55.695881 1.237373 -0.284450 -15.302978 30.245270 -3.579201 -2.925742 -123.932907 35.462929 -14.436478 68.812057 13.705503 -0.774125 15.751470 3.773815 -21.070612 -140.627457 23.314489 -1.401728 79.807800 41.910473 -2.418866 15.892967 9.208594 2.948069 
19.995884 18.468296 11.577009 90.000671 0.013666 -132.006592 12.059974 21.619564 8.210008 11.616290 15.500962 15.695315 -34.477570 0.000000 0.000000 -24.480040 0.000000 0.000000 36.849518 5.611601 -1.882986 -15.516949 -27.017391 36.422359 -74.977234 43.902115 29.127707 -8.054810 1.394771 9.511936 21.621429 26.889143 -3.061122 57.993961 -16.815268 -55.594208 1.237373 -0.284450 -15.302978 30.084105 -3.493316 -2.901019 -123.730133 35.744759 -14.063603 68.812057 13.705503 -0.774125 15.512560 3.582255 -20.819212 -140.830063 23.799976 -0.975362 79.807800 41.910473 -2.418866 15.561095 8.810708 3.559116 
19.995884 18.468296 11.699562 90.000671 0.013666 -132.006592 12.059926 21.869541 8.210022 11.861771 16.051134 15.681384 -34.034878 0.000000 0.000000 -24.164217 0.000000 0.000000 36.437840 4.770625 -0.904498 -15.516949 -27.017391 36.422359 -74.370041 43.871525 28.703876 -7.509585 1.433494 9.748542 21.539560 26.373886 -2.839804 57.743103 -16.767492 -55.492790 1.237373 -0.284450 -15.302978 29.923000 -3.407360 -2.876540 -123.524368 36.025558 -13.688117 68.812057 13.705503 -0.774125 15.274508 3.389625 -20.568632 -141.029587 24.287071 -0.549060 79.807800 41.910473 -2.418866 15.233706 8.409142 4.167498 
19.995884 18.468296 11.822115 90.000671 0.013666 -132.006592 12.059877 22.119528 8.210037 12.107867 16.601507 15.669863 -33.591743 0.000000 0.000000 -23.848240 0.000000 0.000000 36.040546 3.921647 0.068119 -15.516949 -27.017391 36.422359 -73.763397 43.837677 28.280674 -6.964049 1.469973 9.985573 21.460241 25.858227 -2.620228 57.492382 -16.719292 -55.391613 1.237373 -0.284450 -15.302978 29.761934 -3.321333 -2.852305 -123.315544 36.305290 -13.309984 68.812057 13.705503 -0.774125 15.037319 3.195936 -20.318869 -141.225952 24.775700 -0.122796 79.807800 41.910477 -2.418868 14.910832 8.003991 4.773203 
19.995884 18.468296 11.944667 90.000671 0.013666 -132.006592 12.059828 22.369524 8.210050 12.354626 17.152052 15.660790 -33.148170 0.000000 0.000000 -23.532106 0.000000 0.000000 35.657696 3.065163 1.034974 -15.516949 -27.017391 36.422359 -73.157417 43.800621 27.858206 -6.418244 1.504202 10.222998 21.383440 25.342211 -2.402346 57.241787 -16.670660 -55.290661 1.237373 -0.284450 -15.302978 29.600916 -3.235237 -2.828314 -123.103645 36.583912 -12.929178 68.812057 13.705503 -0.774125 14.801000 3.001202 -20.069937 -141.419144 25.265802 0.303451 79.807800 41.910477 -2.418868 14.592500 7.595348 5.376220 
19.995884 18.468296 12.067220 90.000671 0.013666 -132.006592 12.059778 22.619528 8.210062 12.602077 17.702717 15.654174 -32.704182 0.000000 0.000000 -23.215824 0.000000 0.000000 35.289330 2.201671 1.996190 -15.516949 -27.017391 36.422359 -72.552155 43.760319 27.436523 -5.872207 1.536172 10.460776 21.309111 24.825855 -2.186114 56.991356 -16.621609 -55.189968 1.237373 -0.284450 -15.302978 29.439945 -3.149073 -2.804566 -122.888672 36.861420 -12.545678 68.812057 13.705503 -0.774125 14.565557 2.805432 -19.821836 -141.609116 25.757315 0.729710 79.807800 41.910477 -2.418868 14.278738 7.183308 5.976538 
19.995884 18.468296 12.189772 90.000671 0.013666 -132.006592 12.059730 22.869534 8.210075 12.850264 18.253466 15.650043 -32.259789 0.000000 0.000000 -22.899391 0.000000 0.000000 34.935501 1.331676 2.951900 -15.516949 -27.017391 36.422359 -71.947723 43.716816 27.015738 -5.325972 1.565878 10.698875 21.237225 24.309208 -1.971486 56.741074 -16.572138 -55.089535 1.237373 -0.284450 -15.302978 29.279024 -3.062842 -2.781063 -122.670555 37.137783 -12.159453 68.812057 13.705503 -0.774125 14.330992 2.608639 -19.574575 -141.795853 26.250174 1.156010 79.807800 41.910477 -2.418868 13.969554 6.767959 6.574147 
19.995884 18.468296 12.312325 90.000671 0.013666 -132.006592 12.059680 23.119545 8.210088 13.099228 18.804266 15.648423 -31.815004 0.000000 0.000000 -22.582815 0.000000 0.000000 34.596218 0.455680 3.902249 -15.516949 -27.017391 36.422359 -71.344185 43.670105 26.595909 -4.779586 1.593316 10.937270 21.167732 23.792294 -1.758418 56.490936 -16.522240 -54.989330 1.237373 -0.284450 -15.302978 29.118149 -2.976544 -2.757804 -122.449310 37.412964 -11.770483 68.812057 13.705503 -0.774125 14.097311 2.410834 -19.328156 -141.979263 26.744293 1.582376 79.807800 41.910477 -2.418868 13.664982 6.349406 7.169049 
19.995884 18.468296 12.434877 90.000671 0.013666 -132.006592 12.059630 23.369558 8.210101 13.348997 19.355055 15.649324 -31.369837 0.000000 0.000000 -22.266111 0.000000 0.000000 34.271515 -0.425806 4.847391 -15.516949 -27.017391 36.422359 -70.741592 43.620186 26.177113 -4.233079 1.618479 11.175912 21.100611 23.275150 -1.546870 56.240971 -16.471928 -54.889400 1.237373 -0.284450 -15.302978 28.957329 -2.890182 -2.734790 -122.224869 37.686939 -11.378735 68.812057 13.705503 -0.774125 13.864513 2.212029 -19.082577 -142.159363 27.239630 2.008841 79.807800 41.910477 -2.418868 13.365038 5.927742 7.761236 
